<?xml version="1.0" encoding="UTF-8" standalone="no"?>
<!DOCTYPE svg PUBLIC "-//W3C//DTD SVG 1.1//EN"
 "http://www.w3.org/Graphics/SVG/1.1/DTD/svg11.dtd">
<!-- Generated by graphviz version 2.43.0 (0)
 -->
<!-- Title: /home/asterion/3D/pick&#45;plaz/pickplazfeederstm_ESP32Port/ESP32Port/pickplazESP32Port/src/hal.c Pages: 1 -->
<svg width="1409pt" height="225pt"
 viewBox="0.00 0.00 1409.00 225.00" xmlns="http://www.w3.org/2000/svg" xmlns:xlink="http://www.w3.org/1999/xlink">
<g id="graph0" class="graph" transform="scale(1 1) rotate(0) translate(4 221)">
<title>/home/asterion/3D/pick&#45;plaz/pickplazfeederstm_ESP32Port/ESP32Port/pickplazESP32Port/src/hal.c</title>
<!-- Node1 -->
<g id="Node000001" class="node">
<title>Node1</title>
<g id="a_Node000001"><a xlink:title="Implements the ESP32&#45;C3 hardware abstraction layer.">
<polygon fill="#999999" stroke="#666666" points="758.5,-217 561.5,-217 561.5,-165 758.5,-165 758.5,-217"/>
<text text-anchor="start" x="569.5" y="-205" font-family="Helvetica,sans-Serif" font-size="10.00">/home/asterion/3D/pick</text>
<text text-anchor="start" x="569.5" y="-194" font-family="Helvetica,sans-Serif" font-size="10.00">&#45;plaz/pickplazfeederstm</text>
<text text-anchor="start" x="569.5" y="-183" font-family="Helvetica,sans-Serif" font-size="10.00">_ESP32Port/ESP32Port/pickplazESP32</text>
<text text-anchor="middle" x="660" y="-172" font-family="Helvetica,sans-Serif" font-size="10.00">Port/src/hal.c</text>
</a>
</g>
</g>
<!-- Node2 -->
<g id="Node000002" class="node">
<title>Node2</title>
<g id="a_Node000002"><a xlink:href="hal_8h_source.html" target="_top" xlink:title=" ">
<polygon fill="white" stroke="#666666" points="152.5,-129 111.5,-129 111.5,-110 152.5,-110 152.5,-129"/>
<text text-anchor="middle" x="132" y="-117" font-family="Helvetica,sans-Serif" font-size="10.00">hal.h</text>
</a>
</g>
</g>
<!-- Node1&#45;&gt;Node2 -->
<g id="edge1_Node000001_Node000002" class="edge">
<title>Node1&#45;&gt;Node2</title>
<g id="a_edge1_Node000001_Node000002"><a xlink:title=" ">
<path fill="none" stroke="#63b8ff" d="M561.26,-179.97C462.64,-169.4 306.86,-151.22 173,-129 169.7,-128.45 166.26,-127.83 162.84,-127.17"/>
<polygon fill="#63b8ff" stroke="#63b8ff" points="163.29,-123.69 152.8,-125.15 161.91,-130.55 163.29,-123.69"/>
</a>
</g>
</g>
<!-- Node6 -->
<g id="Node000006" class="node">
<title>Node6</title>
<g id="a_Node000006"><a xlink:href="hal__config_8h_source.html" target="_top" xlink:title=" ">
<polygon fill="white" stroke="#666666" points="257.5,-129 182.5,-129 182.5,-110 257.5,-110 257.5,-129"/>
<text text-anchor="middle" x="220" y="-117" font-family="Helvetica,sans-Serif" font-size="10.00">hal_config.h</text>
</a>
</g>
</g>
<!-- Node1&#45;&gt;Node6 -->
<g id="edge5_Node000001_Node000006" class="edge">
<title>Node1&#45;&gt;Node6</title>
<g id="a_edge5_Node000001_Node000006"><a xlink:title=" ">
<path fill="none" stroke="#63b8ff" d="M561.1,-175.5C483.75,-163.98 373.25,-147.09 267.53,-129.22"/>
<polygon fill="#63b8ff" stroke="#63b8ff" points="268.08,-125.77 257.64,-127.55 266.91,-132.67 268.08,-125.77"/>
</a>
</g>
</g>
<!-- Node8 -->
<g id="Node000008" class="node">
<title>Node8</title>
<g id="a_Node000008"><a xlink:title=" ">
<polygon fill="#e0e0e0" stroke="#999999" points="336.5,-129 275.5,-129 275.5,-110 336.5,-110 336.5,-129"/>
<text text-anchor="middle" x="306" y="-117" font-family="Helvetica,sans-Serif" font-size="10.00">esp_err.h</text>
</a>
</g>
</g>
<!-- Node1&#45;&gt;Node8 -->
<g id="edge8_Node000001_Node000008" class="edge">
<title>Node1&#45;&gt;Node8</title>
<g id="a_edge8_Node000001_Node000008"><a xlink:title=" ">
<path fill="none" stroke="#63b8ff" d="M561.27,-171.28C501.92,-159.92 424.61,-144.93 346.58,-129.09"/>
<polygon fill="#63b8ff" stroke="#63b8ff" points="347.06,-125.61 336.56,-127.05 345.67,-132.47 347.06,-125.61"/>
</a>
</g>
</g>
<!-- Node9 -->
<g id="Node000009" class="node">
<title>Node9</title>
<g id="a_Node000009"><a xlink:title=" ">
<polygon fill="#e0e0e0" stroke="#999999" points="417.5,-129 354.5,-129 354.5,-110 417.5,-110 417.5,-129"/>
<text text-anchor="middle" x="386" y="-117" font-family="Helvetica,sans-Serif" font-size="10.00">esp_log.h</text>
</a>
</g>
</g>
<!-- Node1&#45;&gt;Node9 -->
<g id="edge9_Node000001_Node000009" class="edge">
<title>Node1&#45;&gt;Node9</title>
<g id="a_edge9_Node000001_Node000009"><a xlink:title=" ">
<path fill="none" stroke="#63b8ff" d="M561.47,-165.01C515.39,-153.32 462.99,-140.03 427.54,-131.04"/>
<polygon fill="#63b8ff" stroke="#63b8ff" points="428.11,-127.57 417.56,-128.51 426.39,-134.36 428.11,-127.57"/>
</a>
</g>
</g>
<!-- Node10 -->
<g id="Node000010" class="node">
<title>Node10</title>
<g id="a_Node000010"><a xlink:title=" ">
<polygon fill="#e0e0e0" stroke="#999999" points="510,-129 436,-129 436,-110 510,-110 510,-129"/>
<text text-anchor="middle" x="473" y="-117" font-family="Helvetica,sans-Serif" font-size="10.00">esp_timer.h</text>
</a>
</g>
</g>
<!-- Node1&#45;&gt;Node10 -->
<g id="edge10_Node000001_Node000010" class="edge">
<title>Node1&#45;&gt;Node10</title>
<g id="a_edge10_Node000001_Node000010"><a xlink:title=" ">
<path fill="none" stroke="#63b8ff" d="M592.49,-164.91C563.01,-153.95 529.79,-141.61 505.88,-132.72"/>
<polygon fill="#63b8ff" stroke="#63b8ff" points="506.83,-129.34 496.23,-129.14 504.39,-135.9 506.83,-129.34"/>
</a>
</g>
</g>
<!-- Node11 -->
<g id="Node000011" class="node">
<title>Node11</title>
<g id="a_Node000011"><a xlink:title=" ">
<polygon fill="#e0e0e0" stroke="#999999" points="606,-129 528,-129 528,-110 606,-110 606,-129"/>
<text text-anchor="middle" x="567" y="-117" font-family="Helvetica,sans-Serif" font-size="10.00">driver/gpio.h</text>
</a>
</g>
</g>
<!-- Node1&#45;&gt;Node11 -->
<g id="edge11_Node000001_Node000011" class="edge">
<title>Node1&#45;&gt;Node11</title>
<g id="a_edge11_Node000001_Node000011"><a xlink:title=" ">
<path fill="none" stroke="#63b8ff" d="M626.42,-164.91C613.16,-154.99 598.37,-143.94 586.86,-135.34"/>
<polygon fill="#63b8ff" stroke="#63b8ff" points="588.88,-132.48 578.78,-129.3 584.69,-138.09 588.88,-132.48"/>
</a>
</g>
</g>
<!-- Node12 -->
<g id="Node000012" class="node">
<title>Node12</title>
<g id="a_Node000012"><a xlink:title=" ">
<polygon fill="#e0e0e0" stroke="#999999" points="695.5,-129 624.5,-129 624.5,-110 695.5,-110 695.5,-129"/>
<text text-anchor="middle" x="660" y="-117" font-family="Helvetica,sans-Serif" font-size="10.00">driver/i2c.h</text>
</a>
</g>
</g>
<!-- Node1&#45;&gt;Node12 -->
<g id="edge12_Node000001_Node000012" class="edge">
<title>Node1&#45;&gt;Node12</title>
<g id="a_edge12_Node000001_Node000012"><a xlink:title=" ">
<path fill="none" stroke="#63b8ff" d="M660,-164.91C660,-156.55 660,-147.38 660,-139.55"/>
<polygon fill="#63b8ff" stroke="#63b8ff" points="663.5,-139.3 660,-129.3 656.5,-139.3 663.5,-139.3"/>
</a>
</g>
</g>
<!-- Node13 -->
<g id="Node000013" class="node">
<title>Node13</title>
<g id="a_Node000013"><a xlink:title=" ">
<polygon fill="#e0e0e0" stroke="#999999" points="790.5,-129 713.5,-129 713.5,-110 790.5,-110 790.5,-129"/>
<text text-anchor="middle" x="752" y="-117" font-family="Helvetica,sans-Serif" font-size="10.00">driver/ledc.h</text>
</a>
</g>
</g>
<!-- Node1&#45;&gt;Node13 -->
<g id="edge13_Node000001_Node000013" class="edge">
<title>Node1&#45;&gt;Node13</title>
<g id="a_edge13_Node000001_Node000013"><a xlink:title=" ">
<path fill="none" stroke="#63b8ff" d="M693.21,-164.91C706.34,-154.99 720.97,-143.94 732.36,-135.34"/>
<polygon fill="#63b8ff" stroke="#63b8ff" points="734.48,-138.12 740.35,-129.3 730.26,-132.54 734.48,-138.12"/>
</a>
</g>
</g>
<!-- Node14 -->
<g id="Node000014" class="node">
<title>Node14</title>
<g id="a_Node000014"><a xlink:title=" ">
<polygon fill="#e0e0e0" stroke="#999999" points="919,-129 809,-129 809,-110 919,-110 919,-129"/>
<text text-anchor="middle" x="864" y="-117" font-family="Helvetica,sans-Serif" font-size="10.00">driver/spi_master.h</text>
</a>
</g>
</g>
<!-- Node1&#45;&gt;Node14 -->
<g id="edge14_Node000001_Node000014" class="edge">
<title>Node1&#45;&gt;Node14</title>
<g id="a_edge14_Node000001_Node000014"><a xlink:title=" ">
<path fill="none" stroke="#63b8ff" d="M733.65,-164.91C766.23,-153.81 803.01,-141.28 829.18,-132.36"/>
<polygon fill="#63b8ff" stroke="#63b8ff" points="830.32,-135.67 838.65,-129.14 828.06,-129.05 830.32,-135.67"/>
</a>
</g>
</g>
<!-- Node15 -->
<g id="Node000015" class="node">
<title>Node15</title>
<g id="a_Node000015"><a xlink:title=" ">
<polygon fill="#e0e0e0" stroke="#999999" points="1014.5,-129 937.5,-129 937.5,-110 1014.5,-110 1014.5,-129"/>
<text text-anchor="middle" x="976" y="-117" font-family="Helvetica,sans-Serif" font-size="10.00">driver/uart.h</text>
</a>
</g>
</g>
<!-- Node1&#45;&gt;Node15 -->
<g id="edge15_Node000001_Node000015" class="edge">
<title>Node1&#45;&gt;Node15</title>
<g id="a_edge15_Node000001_Node000015"><a xlink:title=" ">
<path fill="none" stroke="#63b8ff" d="M758.68,-168.3C814.8,-155.95 882.59,-141.04 927.37,-131.2"/>
<polygon fill="#63b8ff" stroke="#63b8ff" points="928.38,-134.56 937.4,-128.99 926.88,-127.72 928.38,-134.56"/>
</a>
</g>
</g>
<!-- Node16 -->
<g id="Node000016" class="node">
<title>Node16</title>
<g id="a_Node000016"><a xlink:title=" ">
<polygon fill="#e0e0e0" stroke="#999999" points="1163,-129 1033,-129 1033,-110 1163,-110 1163,-129"/>
<text text-anchor="middle" x="1098" y="-117" font-family="Helvetica,sans-Serif" font-size="10.00">esp_adc/adc_oneshot.h</text>
</a>
</g>
</g>
<!-- Node1&#45;&gt;Node16 -->
<g id="edge16_Node000001_Node000016" class="edge">
<title>Node1&#45;&gt;Node16</title>
<g id="a_edge16_Node000001_Node000016"><a xlink:title=" ">
<path fill="none" stroke="#63b8ff" d="M758.57,-174.36C843.02,-160.96 962.14,-142.06 1034.49,-130.58"/>
<polygon fill="#63b8ff" stroke="#63b8ff" points="1035.05,-134.03 1044.38,-129.01 1033.96,-127.12 1035.05,-134.03"/>
</a>
</g>
</g>
<!-- Node17 -->
<g id="Node000017" class="node">
<title>Node17</title>
<g id="a_Node000017"><a xlink:title=" ">
<polygon fill="#e0e0e0" stroke="#999999" points="1294.5,-129 1181.5,-129 1181.5,-110 1294.5,-110 1294.5,-129"/>
<text text-anchor="middle" x="1238" y="-117" font-family="Helvetica,sans-Serif" font-size="10.00">freertos/FreeRTOS.h</text>
</a>
</g>
</g>
<!-- Node1&#45;&gt;Node17 -->
<g id="edge17_Node000001_Node000017" class="edge">
<title>Node1&#45;&gt;Node17</title>
<g id="a_edge17_Node000001_Node000017"><a xlink:title=" ">
<path fill="none" stroke="#63b8ff" d="M758.67,-178.53C859.48,-166.74 1020.86,-147.69 1171.14,-129.1"/>
<polygon fill="#63b8ff" stroke="#63b8ff" points="1171.98,-132.52 1181.48,-127.82 1171.12,-125.57 1171.98,-132.52"/>
</a>
</g>
</g>
<!-- Node18 -->
<g id="Node000018" class="node">
<title>Node18</title>
<g id="a_Node000018"><a xlink:title=" ">
<polygon fill="#e0e0e0" stroke="#999999" points="1401,-129 1313,-129 1313,-110 1401,-110 1401,-129"/>
<text text-anchor="middle" x="1357" y="-117" font-family="Helvetica,sans-Serif" font-size="10.00">freertos/task.h</text>
</a>
</g>
</g>
<!-- Node1&#45;&gt;Node18 -->
<g id="edge18_Node000001_Node000018" class="edge">
<title>Node1&#45;&gt;Node18</title>
<g id="a_edge18_Node000001_Node000018"><a xlink:title=" ">
<path fill="none" stroke="#63b8ff" d="M758.69,-182.64C883.15,-172.92 1103.93,-154.17 1302.73,-129.09"/>
<polygon fill="#63b8ff" stroke="#63b8ff" points="1303.3,-132.54 1312.78,-127.81 1302.42,-125.6 1303.3,-132.54"/>
</a>
</g>
</g>
<!-- Node3 -->
<g id="Node000003" class="node">
<title>Node3</title>
<g id="a_Node000003"><a xlink:title=" ">
<polygon fill="#e0e0e0" stroke="#999999" points="62,-74 0,-74 0,-55 62,-55 62,-74"/>
<text text-anchor="middle" x="31" y="-62" font-family="Helvetica,sans-Serif" font-size="10.00">stdbool.h</text>
</a>
</g>
</g>
<!-- Node2&#45;&gt;Node3 -->
<g id="edge2_Node000002_Node000003" class="edge">
<title>Node2&#45;&gt;Node3</title>
<g id="a_edge2_Node000002_Node000003"><a xlink:title=" ">
<path fill="none" stroke="#63b8ff" d="M115.77,-109.98C99.82,-101.61 75.22,-88.7 56.62,-78.95"/>
<polygon fill="#63b8ff" stroke="#63b8ff" points="58,-75.72 47.52,-74.17 54.75,-81.92 58,-75.72"/>
</a>
</g>
</g>
<!-- Node4 -->
<g id="Node000004" class="node">
<title>Node4</title>
<g id="a_Node000004"><a xlink:title=" ">
<polygon fill="#e0e0e0" stroke="#999999" points="136,-74 80,-74 80,-55 136,-55 136,-74"/>
<text text-anchor="middle" x="108" y="-62" font-family="Helvetica,sans-Serif" font-size="10.00">stddef.h</text>
</a>
</g>
</g>
<!-- Node2&#45;&gt;Node4 -->
<g id="edge3_Node000002_Node000004" class="edge">
<title>Node2&#45;&gt;Node4</title>
<g id="a_edge3_Node000002_Node000004"><a xlink:title=" ">
<path fill="none" stroke="#63b8ff" d="M128.04,-109.75C124.79,-102.57 120.08,-92.18 116.05,-83.27"/>
<polygon fill="#63b8ff" stroke="#63b8ff" points="119.2,-81.75 111.89,-74.09 112.83,-84.64 119.2,-81.75"/>
</a>
</g>
</g>
<!-- Node5 -->
<g id="Node000005" class="node">
<title>Node5</title>
<g id="a_Node000005"><a xlink:title=" ">
<polygon fill="#e0e0e0" stroke="#999999" points="224.5,-19 171.5,-19 171.5,0 224.5,0 224.5,-19"/>
<text text-anchor="middle" x="198" y="-7" font-family="Helvetica,sans-Serif" font-size="10.00">stdint.h</text>
</a>
</g>
</g>
<!-- Node2&#45;&gt;Node5 -->
<g id="edge4_Node000002_Node000005" class="edge">
<title>Node2&#45;&gt;Node5</title>
<g id="a_edge4_Node000002_Node000005"><a xlink:title=" ">
<path fill="none" stroke="#63b8ff" d="M137.4,-109.66C148.33,-91.77 173.25,-51 187.49,-27.69"/>
<polygon fill="#63b8ff" stroke="#63b8ff" points="190.48,-29.52 192.71,-19.16 184.51,-25.87 190.48,-29.52"/>
</a>
</g>
</g>
<!-- Node7 -->
<g id="Node000007" class="node">
<title>Node7</title>
<g id="a_Node000007"><a xlink:href="board__pins_8h_source.html" target="_top" xlink:title=" ">
<polygon fill="white" stroke="#666666" points="271.5,-74 192.5,-74 192.5,-55 271.5,-55 271.5,-74"/>
<text text-anchor="middle" x="232" y="-62" font-family="Helvetica,sans-Serif" font-size="10.00">board_pins.h</text>
</a>
</g>
</g>
<!-- Node6&#45;&gt;Node7 -->
<g id="edge6_Node000006_Node000007" class="edge">
<title>Node6&#45;&gt;Node7</title>
<g id="a_edge6_Node000006_Node000007"><a xlink:title=" ">
<path fill="none" stroke="#63b8ff" d="M221.98,-109.75C223.57,-102.72 225.86,-92.62 227.85,-83.84"/>
<polygon fill="#63b8ff" stroke="#63b8ff" points="231.26,-84.62 230.06,-74.09 224.43,-83.07 231.26,-84.62"/>
</a>
</g>
</g>
<!-- Node7&#45;&gt;Node5 -->
<g id="edge7_Node000007_Node000005" class="edge">
<title>Node7&#45;&gt;Node5</title>
<g id="a_edge7_Node000007_Node000005"><a xlink:title=" ">
<path fill="none" stroke="#63b8ff" d="M226.39,-54.75C221.68,-47.42 214.83,-36.73 209.03,-27.7"/>
<polygon fill="#63b8ff" stroke="#63b8ff" points="211.86,-25.62 203.51,-19.09 205.96,-29.4 211.86,-25.62"/>
</a>
</g>
</g>
</g>
</svg>
