<?xml version="1.0" encoding="UTF-8" standalone="no"?>
<!DOCTYPE svg PUBLIC "-//W3C//DTD SVG 1.1//EN"
 "http://www.w3.org/Graphics/SVG/1.1/DTD/svg11.dtd">
<!-- Generated by graphviz version 2.43.0 (0)
 -->
<!-- Title: /home/asterion/3D/pick&#45;plaz/pickplazfeederstm_ESP32Port/ESP32Port/pickplazESP32Port/src/main.c Pages: 1 -->
<svg width="575pt" height="225pt"
 viewBox="0.00 0.00 575.00 225.00" xmlns="http://www.w3.org/2000/svg" xmlns:xlink="http://www.w3.org/1999/xlink">
<g id="graph0" class="graph" transform="scale(1 1) rotate(0) translate(4 221)">
<title>/home/asterion/3D/pick&#45;plaz/pickplazfeederstm_ESP32Port/ESP32Port/pickplazESP32Port/src/main.c</title>
<!-- Node1 -->
<g id="Node000001" class="node">
<title>Node1</title>
<g id="a_Node000001"><a xlink:title="Entry point for the PickPlaz ESP32&#45;C3 firmware.">
<polygon fill="#999999" stroke="#666666" points="398,-217 201,-217 201,-165 398,-165 398,-217"/>
<text text-anchor="start" x="209" y="-205" font-family="Helvetica,sans-Serif" font-size="10.00">/home/asterion/3D/pick</text>
<text text-anchor="start" x="209" y="-194" font-family="Helvetica,sans-Serif" font-size="10.00">&#45;plaz/pickplazfeederstm</text>
<text text-anchor="start" x="209" y="-183" font-family="Helvetica,sans-Serif" font-size="10.00">_ESP32Port/ESP32Port/pickplazESP32</text>
<text text-anchor="middle" x="299.5" y="-172" font-family="Helvetica,sans-Serif" font-size="10.00">Port/src/main.c</text>
</a>
</g>
</g>
<!-- Node2 -->
<g id="Node000002" class="node">
<title>Node2</title>
<g id="a_Node000002"><a xlink:title=" ">
<polygon fill="#e0e0e0" stroke="#999999" points="63,-129 0,-129 0,-110 63,-110 63,-129"/>
<text text-anchor="middle" x="31.5" y="-117" font-family="Helvetica,sans-Serif" font-size="10.00">esp_log.h</text>
</a>
</g>
</g>
<!-- Node1&#45;&gt;Node2 -->
<g id="edge1_Node000001_Node000002" class="edge">
<title>Node1&#45;&gt;Node2</title>
<g id="a_edge1_Node000001_Node000002"><a xlink:title=" ">
<path fill="none" stroke="#63b8ff" d="M202.75,-164.91C158.12,-153.34 107.51,-140.21 72.96,-131.25"/>
<polygon fill="#63b8ff" stroke="#63b8ff" points="73.77,-127.85 63.21,-128.72 72.01,-134.62 73.77,-127.85"/>
</a>
</g>
</g>
<!-- Node3 -->
<g id="Node000003" class="node">
<title>Node3</title>
<g id="a_Node000003"><a xlink:title=" ">
<polygon fill="#e0e0e0" stroke="#999999" points="165.5,-129 81.5,-129 81.5,-110 165.5,-110 165.5,-129"/>
<text text-anchor="middle" x="123.5" y="-117" font-family="Helvetica,sans-Serif" font-size="10.00">esp_system.h</text>
</a>
</g>
</g>
<!-- Node1&#45;&gt;Node3 -->
<g id="edge2_Node000001_Node000003" class="edge">
<title>Node1&#45;&gt;Node3</title>
<g id="a_edge2_Node000001_Node000003"><a xlink:title=" ">
<path fill="none" stroke="#63b8ff" d="M235.96,-164.91C208.34,-154 177.23,-141.72 154.75,-132.84"/>
<polygon fill="#63b8ff" stroke="#63b8ff" points="155.95,-129.55 145.37,-129.14 153.38,-136.06 155.95,-129.55"/>
</a>
</g>
</g>
<!-- Node4 -->
<g id="Node000004" class="node">
<title>Node4</title>
<g id="a_Node000004"><a xlink:title=" ">
<polygon fill="#e0e0e0" stroke="#999999" points="297,-129 184,-129 184,-110 297,-110 297,-129"/>
<text text-anchor="middle" x="240.5" y="-117" font-family="Helvetica,sans-Serif" font-size="10.00">freertos/FreeRTOS.h</text>
</a>
</g>
</g>
<!-- Node1&#45;&gt;Node4 -->
<g id="edge3_Node000001_Node000004" class="edge">
<title>Node1&#45;&gt;Node4</title>
<g id="a_edge3_Node000001_Node000004"><a xlink:title=" ">
<path fill="none" stroke="#63b8ff" d="M278.2,-164.91C270.36,-155.67 261.68,-145.45 254.63,-137.14"/>
<polygon fill="#63b8ff" stroke="#63b8ff" points="257.11,-134.66 247.97,-129.3 251.78,-139.19 257.11,-134.66"/>
</a>
</g>
</g>
<!-- Node5 -->
<g id="Node000005" class="node">
<title>Node5</title>
<g id="a_Node000005"><a xlink:title=" ">
<polygon fill="#e0e0e0" stroke="#999999" points="403.5,-129 315.5,-129 315.5,-110 403.5,-110 403.5,-129"/>
<text text-anchor="middle" x="359.5" y="-117" font-family="Helvetica,sans-Serif" font-size="10.00">freertos/task.h</text>
</a>
</g>
</g>
<!-- Node1&#45;&gt;Node5 -->
<g id="edge4_Node000001_Node000005" class="edge">
<title>Node1&#45;&gt;Node5</title>
<g id="a_edge4_Node000001_Node000005"><a xlink:title=" ">
<path fill="none" stroke="#63b8ff" d="M321.16,-164.91C329.22,-155.58 338.14,-145.24 345.36,-136.88"/>
<polygon fill="#63b8ff" stroke="#63b8ff" points="348.02,-139.16 351.9,-129.3 342.72,-134.58 348.02,-139.16"/>
</a>
</g>
</g>
<!-- Node6 -->
<g id="Node000006" class="node">
<title>Node6</title>
<g id="a_Node000006"><a xlink:href="hal_8h_source.html" target="_top" xlink:title=" ">
<polygon fill="white" stroke="#666666" points="488,-74 447,-74 447,-55 488,-55 488,-74"/>
<text text-anchor="middle" x="467.5" y="-62" font-family="Helvetica,sans-Serif" font-size="10.00">hal.h</text>
</a>
</g>
</g>
<!-- Node1&#45;&gt;Node6 -->
<g id="edge5_Node000001_Node000006" class="edge">
<title>Node1&#45;&gt;Node6</title>
<g id="a_edge5_Node000001_Node000006"><a xlink:title=" ">
<path fill="none" stroke="#63b8ff" d="M355.45,-164.89C374.48,-155.06 395.28,-142.81 412.5,-129 429.49,-115.38 445.37,-96.05 455.65,-82.3"/>
<polygon fill="#63b8ff" stroke="#63b8ff" points="458.5,-84.33 461.56,-74.19 452.84,-80.21 458.5,-84.33"/>
</a>
</g>
</g>
<!-- Node10 -->
<g id="Node000010" class="node">
<title>Node10</title>
<g id="a_Node000010"><a xlink:href="pickplaz__app_8h_source.html" target="_top" xlink:title=" ">
<polygon fill="white" stroke="#666666" points="549,-129 460,-129 460,-110 549,-110 549,-129"/>
<text text-anchor="middle" x="504.5" y="-117" font-family="Helvetica,sans-Serif" font-size="10.00">pickplaz_app.h</text>
</a>
</g>
</g>
<!-- Node1&#45;&gt;Node10 -->
<g id="edge9_Node000001_Node000010" class="edge">
<title>Node1&#45;&gt;Node10</title>
<g id="a_edge9_Node000001_Node000010"><a xlink:title=" ">
<path fill="none" stroke="#63b8ff" d="M373.51,-164.91C406.26,-153.81 443.22,-141.28 469.51,-132.36"/>
<polygon fill="#63b8ff" stroke="#63b8ff" points="470.68,-135.66 479.03,-129.14 468.43,-129.03 470.68,-135.66"/>
</a>
</g>
</g>
<!-- Node7 -->
<g id="Node000007" class="node">
<title>Node7</title>
<g id="a_Node000007"><a xlink:title=" ">
<polygon fill="#e0e0e0" stroke="#999999" points="421.5,-19 359.5,-19 359.5,0 421.5,0 421.5,-19"/>
<text text-anchor="middle" x="390.5" y="-7" font-family="Helvetica,sans-Serif" font-size="10.00">stdbool.h</text>
</a>
</g>
</g>
<!-- Node6&#45;&gt;Node7 -->
<g id="edge6_Node000006_Node000007" class="edge">
<title>Node6&#45;&gt;Node7</title>
<g id="a_edge6_Node000006_Node000007"><a xlink:title=" ">
<path fill="none" stroke="#63b8ff" d="M455.13,-54.98C443.41,-46.92 425.58,-34.65 411.61,-25.03"/>
<polygon fill="#63b8ff" stroke="#63b8ff" points="413.32,-21.96 403.1,-19.17 409.35,-27.72 413.32,-21.96"/>
</a>
</g>
</g>
<!-- Node8 -->
<g id="Node000008" class="node">
<title>Node8</title>
<g id="a_Node000008"><a xlink:title=" ">
<polygon fill="#e0e0e0" stroke="#999999" points="495.5,-19 439.5,-19 439.5,0 495.5,0 495.5,-19"/>
<text text-anchor="middle" x="467.5" y="-7" font-family="Helvetica,sans-Serif" font-size="10.00">stddef.h</text>
</a>
</g>
</g>
<!-- Node6&#45;&gt;Node8 -->
<g id="edge7_Node000006_Node000008" class="edge">
<title>Node6&#45;&gt;Node8</title>
<g id="a_edge7_Node000006_Node000008"><a xlink:title=" ">
<path fill="none" stroke="#63b8ff" d="M467.5,-54.75C467.5,-47.8 467.5,-37.85 467.5,-29.13"/>
<polygon fill="#63b8ff" stroke="#63b8ff" points="471,-29.09 467.5,-19.09 464,-29.09 471,-29.09"/>
</a>
</g>
</g>
<!-- Node9 -->
<g id="Node000009" class="node">
<title>Node9</title>
<g id="a_Node000009"><a xlink:title=" ">
<polygon fill="#e0e0e0" stroke="#999999" points="567,-19 514,-19 514,0 567,0 567,-19"/>
<text text-anchor="middle" x="540.5" y="-7" font-family="Helvetica,sans-Serif" font-size="10.00">stdint.h</text>
</a>
</g>
</g>
<!-- Node6&#45;&gt;Node9 -->
<g id="edge8_Node000006_Node000009" class="edge">
<title>Node6&#45;&gt;Node9</title>
<g id="a_edge8_Node000006_Node000009"><a xlink:title=" ">
<path fill="none" stroke="#63b8ff" d="M479.23,-54.98C490.23,-47 506.92,-34.88 520.1,-25.31"/>
<polygon fill="#63b8ff" stroke="#63b8ff" points="522.52,-27.88 528.56,-19.17 518.41,-22.21 522.52,-27.88"/>
</a>
</g>
</g>
<!-- Node10&#45;&gt;Node6 -->
<g id="edge10_Node000010_Node000006" class="edge">
<title>Node10&#45;&gt;Node6</title>
<g id="a_edge10_Node000010_Node000006"><a xlink:title=" ">
<path fill="none" stroke="#63b8ff" d="M498.39,-109.75C493.22,-102.34 485.65,-91.5 479.31,-82.41"/>
<polygon fill="#63b8ff" stroke="#63b8ff" points="482.09,-80.29 473.5,-74.09 476.35,-84.29 482.09,-80.29"/>
</a>
</g>
</g>
</g>
</svg>
