<?xml version="1.0" encoding="UTF-8" standalone="no"?>
<!DOCTYPE svg PUBLIC "-//W3C//DTD SVG 1.1//EN"
 "http://www.w3.org/Graphics/SVG/1.1/DTD/svg11.dtd">
<!-- Generated by graphviz version 2.43.0 (0)
 -->
<!-- Title: /home/asterion/3D/pick&#45;plaz/pickplazfeederstm_ESP32Port/ESP32Port/pickplazESP32Port/src/pickplaz_app.c Pages: 1 -->
<svg width="432pt" height="225pt"
 viewBox="0.00 0.00 432.00 225.00" xmlns="http://www.w3.org/2000/svg" xmlns:xlink="http://www.w3.org/1999/xlink">
<g id="graph0" class="graph" transform="scale(1 1) rotate(0) translate(4 221)">
<title>/home/asterion/3D/pick&#45;plaz/pickplazfeederstm_ESP32Port/ESP32Port/pickplazESP32Port/src/pickplaz_app.c</title>
<!-- Node1 -->
<g id="Node000001" class="node">
<title>Node1</title>
<g id="a_Node000001"><a xlink:title="Implements the PickPlaz application state machine and IO orchestration.">
<polygon fill="#999999" stroke="#666666" points="307,-217 110,-217 110,-165 307,-165 307,-217"/>
<text text-anchor="start" x="118" y="-205" font-family="Helvetica,sans-Serif" font-size="10.00">/home/asterion/3D/pick</text>
<text text-anchor="start" x="118" y="-194" font-family="Helvetica,sans-Serif" font-size="10.00">&#45;plaz/pickplazfeederstm</text>
<text text-anchor="start" x="118" y="-183" font-family="Helvetica,sans-Serif" font-size="10.00">_ESP32Port/ESP32Port/pickplazESP32</text>
<text text-anchor="middle" x="208.5" y="-172" font-family="Helvetica,sans-Serif" font-size="10.00">Port/src/pickplaz_app.c</text>
</a>
</g>
</g>
<!-- Node2 -->
<g id="Node000002" class="node">
<title>Node2</title>
<g id="a_Node000002"><a xlink:href="pickplaz__app_8h_source.html" target="_top" xlink:title=" ">
<polygon fill="white" stroke="#666666" points="89,-129 0,-129 0,-110 89,-110 89,-129"/>
<text text-anchor="middle" x="44.5" y="-117" font-family="Helvetica,sans-Serif" font-size="10.00">pickplaz_app.h</text>
</a>
</g>
</g>
<!-- Node1&#45;&gt;Node2 -->
<g id="edge1_Node000001_Node000002" class="edge">
<title>Node1&#45;&gt;Node2</title>
<g id="a_edge1_Node000001_Node000002"><a xlink:title=" ">
<path fill="none" stroke="#63b8ff" d="M149.29,-164.91C123.79,-154.1 95.09,-141.94 74.18,-133.08"/>
<polygon fill="#63b8ff" stroke="#63b8ff" points="75.45,-129.81 64.88,-129.14 72.72,-136.26 75.45,-129.81"/>
</a>
</g>
</g>
<!-- Node3 -->
<g id="Node000003" class="node">
<title>Node3</title>
<g id="a_Node000003"><a xlink:href="hal_8h_source.html" target="_top" xlink:title=" ">
<polygon fill="white" stroke="#666666" points="138,-74 97,-74 97,-55 138,-55 138,-74"/>
<text text-anchor="middle" x="117.5" y="-62" font-family="Helvetica,sans-Serif" font-size="10.00">hal.h</text>
</a>
</g>
</g>
<!-- Node1&#45;&gt;Node3 -->
<g id="edge10_Node000001_Node000003" class="edge">
<title>Node1&#45;&gt;Node3</title>
<g id="a_edge10_Node000001_Node000003"><a xlink:title=" ">
<path fill="none" stroke="#63b8ff" d="M170.87,-164.92C158.42,-155.02 145.47,-142.71 136.5,-129 127.64,-115.46 122.78,-97.63 120.2,-84.32"/>
<polygon fill="#63b8ff" stroke="#63b8ff" points="123.64,-83.67 118.53,-74.38 116.74,-84.83 123.64,-83.67"/>
</a>
</g>
</g>
<!-- Node7 -->
<g id="Node000007" class="node">
<title>Node7</title>
<g id="a_Node000007"><a xlink:title=" ">
<polygon fill="#e0e0e0" stroke="#999999" points="211,-129 146,-129 146,-110 211,-110 211,-129"/>
<text text-anchor="middle" x="178.5" y="-117" font-family="Helvetica,sans-Serif" font-size="10.00">inttypes.h</text>
</a>
</g>
</g>
<!-- Node1&#45;&gt;Node7 -->
<g id="edge6_Node000001_Node000007" class="edge">
<title>Node1&#45;&gt;Node7</title>
<g id="a_edge6_Node000001_Node000007"><a xlink:title=" ">
<path fill="none" stroke="#63b8ff" d="M197.67,-164.91C193.93,-156.26 189.83,-146.74 186.37,-138.74"/>
<polygon fill="#63b8ff" stroke="#63b8ff" points="189.48,-137.1 182.3,-129.3 183.05,-139.87 189.48,-137.1"/>
</a>
</g>
</g>
<!-- Node8 -->
<g id="Node000008" class="node">
<title>Node8</title>
<g id="a_Node000008"><a xlink:href="board__pins_8h_source.html" target="_top" xlink:title=" ">
<polygon fill="white" stroke="#666666" points="279,-74 200,-74 200,-55 279,-55 279,-74"/>
<text text-anchor="middle" x="239.5" y="-62" font-family="Helvetica,sans-Serif" font-size="10.00">board_pins.h</text>
</a>
</g>
</g>
<!-- Node1&#45;&gt;Node8 -->
<g id="edge7_Node000001_Node000008" class="edge">
<title>Node1&#45;&gt;Node8</title>
<g id="a_edge7_Node000001_Node000008"><a xlink:title=" ">
<path fill="none" stroke="#63b8ff" d="M214.77,-164.81C220.74,-140.85 229.57,-105.37 234.91,-83.94"/>
<polygon fill="#63b8ff" stroke="#63b8ff" points="238.33,-84.7 237.35,-74.15 231.53,-83.01 238.33,-84.7"/>
</a>
</g>
</g>
<!-- Node9 -->
<g id="Node000009" class="node">
<title>Node9</title>
<g id="a_Node000009"><a xlink:title=" ">
<polygon fill="#e0e0e0" stroke="#999999" points="331,-129 268,-129 268,-110 331,-110 331,-129"/>
<text text-anchor="middle" x="299.5" y="-117" font-family="Helvetica,sans-Serif" font-size="10.00">esp_log.h</text>
</a>
</g>
</g>
<!-- Node1&#45;&gt;Node9 -->
<g id="edge9_Node000001_Node000009" class="edge">
<title>Node1&#45;&gt;Node9</title>
<g id="a_edge9_Node000001_Node000009"><a xlink:title=" ">
<path fill="none" stroke="#63b8ff" d="M241.35,-164.91C254.21,-155.09 268.53,-144.16 279.74,-135.59"/>
<polygon fill="#63b8ff" stroke="#63b8ff" points="282.15,-138.15 287.97,-129.3 277.9,-132.59 282.15,-138.15"/>
</a>
</g>
</g>
<!-- Node10 -->
<g id="Node000010" class="node">
<title>Node10</title>
<g id="a_Node000010"><a xlink:href="hal__config_8h_source.html" target="_top" xlink:title=" ">
<polygon fill="white" stroke="#666666" points="424,-129 349,-129 349,-110 424,-110 424,-129"/>
<text text-anchor="middle" x="386.5" y="-117" font-family="Helvetica,sans-Serif" font-size="10.00">hal_config.h</text>
</a>
</g>
</g>
<!-- Node1&#45;&gt;Node10 -->
<g id="edge11_Node000001_Node000010" class="edge">
<title>Node1&#45;&gt;Node10</title>
<g id="a_edge11_Node000001_Node000010"><a xlink:title=" ">
<path fill="none" stroke="#63b8ff" d="M272.76,-164.91C300.69,-154 332.16,-141.72 354.9,-132.84"/>
<polygon fill="#63b8ff" stroke="#63b8ff" points="356.34,-136.03 364.38,-129.14 353.8,-129.51 356.34,-136.03"/>
</a>
</g>
</g>
<!-- Node2&#45;&gt;Node3 -->
<g id="edge2_Node000002_Node000003" class="edge">
<title>Node2&#45;&gt;Node3</title>
<g id="a_edge2_Node000002_Node000003"><a xlink:title=" ">
<path fill="none" stroke="#63b8ff" d="M56.23,-109.98C67.23,-102 83.92,-89.88 97.1,-80.31"/>
<polygon fill="#63b8ff" stroke="#63b8ff" points="99.52,-82.88 105.56,-74.17 95.41,-77.21 99.52,-82.88"/>
</a>
</g>
</g>
<!-- Node4 -->
<g id="Node000004" class="node">
<title>Node4</title>
<g id="a_Node000004"><a xlink:title=" ">
<polygon fill="#e0e0e0" stroke="#999999" points="84.5,-19 22.5,-19 22.5,0 84.5,0 84.5,-19"/>
<text text-anchor="middle" x="53.5" y="-7" font-family="Helvetica,sans-Serif" font-size="10.00">stdbool.h</text>
</a>
</g>
</g>
<!-- Node3&#45;&gt;Node4 -->
<g id="edge3_Node000003_Node000004" class="edge">
<title>Node3&#45;&gt;Node4</title>
<g id="a_edge3_Node000003_Node000004"><a xlink:title=" ">
<path fill="none" stroke="#63b8ff" d="M107.22,-54.98C97.66,-47.07 83.22,-35.11 71.72,-25.58"/>
<polygon fill="#63b8ff" stroke="#63b8ff" points="73.9,-22.85 63.97,-19.17 69.44,-28.24 73.9,-22.85"/>
</a>
</g>
</g>
<!-- Node5 -->
<g id="Node000005" class="node">
<title>Node5</title>
<g id="a_Node000005"><a xlink:title=" ">
<polygon fill="#e0e0e0" stroke="#999999" points="158.5,-19 102.5,-19 102.5,0 158.5,0 158.5,-19"/>
<text text-anchor="middle" x="130.5" y="-7" font-family="Helvetica,sans-Serif" font-size="10.00">stddef.h</text>
</a>
</g>
</g>
<!-- Node3&#45;&gt;Node5 -->
<g id="edge4_Node000003_Node000005" class="edge">
<title>Node3&#45;&gt;Node5</title>
<g id="a_edge4_Node000003_Node000005"><a xlink:title=" ">
<path fill="none" stroke="#63b8ff" d="M119.65,-54.75C121.37,-47.72 123.85,-37.62 126,-28.84"/>
<polygon fill="#63b8ff" stroke="#63b8ff" points="129.41,-29.63 128.39,-19.09 122.61,-27.97 129.41,-29.63"/>
</a>
</g>
</g>
<!-- Node6 -->
<g id="Node000006" class="node">
<title>Node6</title>
<g id="a_Node000006"><a xlink:title=" ">
<polygon fill="#e0e0e0" stroke="#999999" points="254,-19 201,-19 201,0 254,0 254,-19"/>
<text text-anchor="middle" x="227.5" y="-7" font-family="Helvetica,sans-Serif" font-size="10.00">stdint.h</text>
</a>
</g>
</g>
<!-- Node3&#45;&gt;Node6 -->
<g id="edge5_Node000003_Node000006" class="edge">
<title>Node3&#45;&gt;Node6</title>
<g id="a_edge5_Node000003_Node000006"><a xlink:title=" ">
<path fill="none" stroke="#63b8ff" d="M135.17,-54.98C152.79,-46.5 180.08,-33.35 200.43,-23.54"/>
<polygon fill="#63b8ff" stroke="#63b8ff" points="202.02,-26.66 209.51,-19.17 198.98,-20.36 202.02,-26.66"/>
</a>
</g>
</g>
<!-- Node8&#45;&gt;Node6 -->
<g id="edge8_Node000008_Node000006" class="edge">
<title>Node8&#45;&gt;Node6</title>
<g id="a_edge8_Node000008_Node000006"><a xlink:title=" ">
<path fill="none" stroke="#63b8ff" d="M237.52,-54.75C235.93,-47.72 233.64,-37.62 231.65,-28.84"/>
<polygon fill="#63b8ff" stroke="#63b8ff" points="235.07,-28.07 229.44,-19.09 228.24,-29.62 235.07,-28.07"/>
</a>
</g>
</g>
<!-- Node10&#45;&gt;Node8 -->
<g id="edge12_Node000010_Node000008" class="edge">
<title>Node10&#45;&gt;Node8</title>
<g id="a_edge12_Node000010_Node000008"><a xlink:title=" ">
<path fill="none" stroke="#63b8ff" d="M362.88,-109.98C338.6,-101.23 300.55,-87.51 273.13,-77.62"/>
<polygon fill="#63b8ff" stroke="#63b8ff" points="274.14,-74.27 263.55,-74.17 271.77,-80.85 274.14,-74.27"/>
</a>
</g>
</g>
</g>
</svg>
